# xmcd CD database file
#
# Track frame offsets:
#	150
#	18050
#	35625
#	56425
#	81650
#	98900
#	116550
#	134275
#	159725
#	175525
#	200275
#	217900
#	237200
#	255950
#
# Disc length: 3662 seconds
#
# Revision: 2
# Processed by: cddbd v1.4b41PL1 Copyright (c) Steve Scherf et al.
# Submitted via: Feurio! 1.50.2ß - http://www.feurio.com
#
DISCID=b00e4c0e
DTITLE=Paris Red - Ain't nobody
DYEAR=1900
DGENRE=
TTITLE0=Track 03
TTITLE1=Track 04
TTITLE2=Track 05
TTITLE3=Track 06
TTITLE4=Track 07
TTITLE5=Track 08
TTITLE6=Track 09
TTITLE7=Track 10
TTITLE8=Track 11
TTITLE9=Track 12
TTITLE10=Track 13
TTITLE11=Track 14
TTITLE12=Track 15
TTITLE13=Track 16
EXTD=
EXTT0=
EXTT1=
EXTT2=
EXTT3=
EXTT4=
EXTT5=
EXTT6=
EXTT7=
EXTT8=
EXTT9=
EXTT10=
EXTT11=
EXTT12=
EXTT13=
PLAYORDER=
